<svg xmlns="http://www.w3.org/2000/svg" xmlns:xlink="http://www.w3.org/1999/xlink" viewBox="0 0 445 445" xmlns:v="https://vecta.io/nano"><style><![CDATA[.H,.E,.F{isolation:isolate}]]></style><defs><linearGradient id="A" x1="222.894" y1="460.917" x2="222.894" y2="-16.203" gradientUnits="userSpaceOnUse"><stop offset="0" stop-color="#333"/><stop offset="1" stop-color="#ccc"/></linearGradient><linearGradient id="B" x1="223.163" y1="-2.996" x2="223.163" y2="448.564" gradientUnits="userSpaceOnUse"><stop offset="0" stop-color="#333"/><stop offset="1" stop-color="#ccc"/></linearGradient><linearGradient id="C" x1="5.38" y1="252.69" x2="106.16" y2="369.77" gradientTransform="translate(553.23 -44.96) rotate(-132.15) scale(1 -1)" gradientUnits="userSpaceOnUse"><stop offset="0" stop-color="#fff"/><stop offset="1" stop-color="#fff" stop-opacity="0"/></linearGradient><linearGradient id="D" x1="134.55" y1="278.95" x2="101.6" y2="446.79" gradientTransform="translate(553.23 -44.96) rotate(-132.15) scale(1 -1)" gradientUnits="userSpaceOnUse"><stop offset="0" stop-color="#fff"/><stop offset="1" stop-color="#fff" stop-opacity="0"/></linearGradient><path id="E" d="M22.54 224.08c.37-110.06 89.94-199.41 200.04-199.56 55.66-.08 108.71 23.1 146.32 63.94L221.91 223.8l-199.37.28z"/><path id="F" d="M245.94,190.22c-.04,1.47-.61,2.66-1.74,3.63-.85.74-1.9,1.22-3.25,1.18-1.31-.03-2.41-.49-3.33-1.49-.93-1-1.42-2.1-1.43-3.46-.02-2.44,2.34-4.84,4.94-4.8,2.36.04,4.91,2.18,4.81,4.93h0Z"/><path id="G" d="M291.83,191.54c.04-2.75,2.27-4.91,5.02-4.86,2.76.04,4.92,2.27,4.87,5.01-.05,2.75-2.27,4.91-5.02,4.86-2.76-.04-4.92-2.27-4.87-5.01Z"/></defs><g stroke-linejoin="round"><path d="M443.89 222.5c0-122.26-99.12-221.38-221.39-221.38S1.12 100.24 1.12 222.5s99.12 221.38 221.38 221.38 221.38-99.12 221.38-221.38z" fill="url(#A)" stroke="#000" stroke-width="2.24"/><path d="M431.81,222.46c0,115.58-93.7,209.29-209.29,209.29S13.24,338.04,13.24,222.46,106.94,13.17,222.52,13.17s209.29,93.7,209.29,209.29Z" fill="url(#B)" stroke="#fff" stroke-width="4.47"/></g><path d="M424.66,222.45c0,111.65-90.51,202.16-202.16,202.16S20.34,334.09,20.34,222.45,110.86,20.29,222.5,20.29s202.16,90.51,202.16,202.16Z"/><path d="M421.67,223.61c0,109.44-88.72,198.16-198.16,198.16S25.35,333.05,25.35,223.61,114.08,25.45,223.51,25.45s198.16,88.72,198.16,198.16Z" fill="#fff"/><path class="E" d="M228.12 222.67a3.89 3.89 0 0 1-7.78 0 3.89 3.89 0 0 1 7.78 0z" fill="#f0f2ff" opacity=".6"/><path class="F" d="M222.51,25.3C116.93,25.3,31.35,103.93,31.35,200.96c0,5.18.25,10.31.73,15.38,0,0,50.45,14.41,76.3,18.45,37.74,5.89,76.1,8.73,114.3,8.3,38.27-.43,76.62-4.16,114.3-10.89,25.9-4.62,76.3-20.17,76.3-20.17.25-3.66.38-7.35.38-11.06.01-97.03-85.57-175.67-191.15-175.67h0Z" fill="#e0e0e0" opacity=".44"/><use xlink:href="#E" fill="url(#C)"/><use xlink:href="#E" class="H" fill="url(#D)" opacity=".66"/><g fill="#fefefe"><path d="M389.92 167.7v15.15h.99v13.6l.82.04v6.46h.99v3.82l1.02.06v70.1H51.28v-70.09l.95-.06v-3.8h1.02v-6.5h.82v-13.56h.99V167.7h334.85zM56.13 182.84h332.76v-14.13H56.13v14.13zm-1.01 13.59h334.77c.14-2.91.08-11.71-.06-12.51H55.12v12.51zm335.6 1.08H54.29v5.29s.02.06.04.09.05.05.04.04h336.36v-5.41h0zM52.29 222.47v53.48h25.89v-68.09c-3.29-.15-25.06-.09-25.89.06v11.44m340.44 56.58v-68.1h-25.89v68.1h25.89zm-175.19 0v-1.02-14.09a5.39 5.39 0 0 1 .61-2.49c.87-1.72 2.34-2.47 4.18-2.66.49-.05.96.07 1.44.19 1.25.31 2.21 1 2.9 2.09.56.89.82 1.85.82 2.91v14.19.88h4.68v-2.43h2.17v-60.18h-23.65v60.22h2.21v2.4h4.65zM391.73 204H53.27v1.44c.01.46-.06.92.04 1.33h338.42V204zm-77.62 9.32v60.19c.75.06 1.48-.04 2.24.06v2.37h4.02v-15.2c0-.85.21-1.63.6-2.39.88-1.71 2.33-2.49 4.18-2.66.49-.05.96.06 1.44.19 1.28.34 2.26 1.03 2.94 2.17.53.88.78 1.8.78 2.82v14.09.99h4.07v-2.43h2.18v-60.19h-22.44zm-205.65-.01v60.24h2.24v2.38h3.62v-14.69c0-.62.01-1.23.18-1.85.18-.66.44-1.28.85-1.77.75-.91 1.63-1.68 2.91-1.74 1.34-.59 2.93 0 3.9.69 1.31.94 2.09 2.3 2.1 3.97v14.39 1.03c1.53-.04 3 .04 4.5-.05v-2.4h2.16V213.3h-22.45 0zm193.82 60.21v-60.19c-3.71-.15-21.39-.09-22.24.07v60.16h2.24v2.38h3.62v-14.69c0-.62.01-1.23.18-1.85.18-.66.44-1.28.85-1.77.75-.91 1.63-1.68 2.91-1.74 1.34-.59 2.93 0 3.9.69 1.31.94 2.09 2.3 2.1 3.97v14.39 1.03c1.46-.03 2.86.03 4.3-.04v-2.41h2.16zm-137.3 0v-60.19c-3.77-.15-21.39-.09-22.24.07v60.16h2.24v2.38h3.62v-14.69c0-.62.01-1.23.18-1.85.17-.66.44-1.28.85-1.77.75-.91 1.63-1.68 2.91-1.74 1.34-.59 2.93 0 3.9.69 1.31.94 2.09 2.3 2.1 3.97v14.39 1.03c1.46-.04 2.86.04 4.3-.05v-2.4H165zm14.02 2.44h3.15c.2 0 .32-.03.31-.26-.01-.2 0-.41 0-.61V260.8c0-1.45.47-2.71 1.54-3.72 1.47-1.39 3.23-1.79 5.08-1.12 2.13.77 3.29 2.5 3.3 4.73v14.49.74h4.26v-1.24c.01-.39-.05-.79.06-1.2h2.14c.16-5.63.09-59.2-.07-60.16h-21.96v60.22h2.18v2.41h0zm89.21-2.44v-60.19c-3.26-.14-21.2-.08-22.04.06v60.16h2.23v2.41h3.47s.06-.02.09-.04.04-.05.06-.07v-14.6c0-.62 0-1.23.18-1.85.18-.66.43-1.28.85-1.77.75-.91 1.64-1.68 2.91-1.75 1.34-.59 2.93 0 3.9.69 1.31.94 2.1 2.29 2.1 3.97v14.39 1.02h3.9l.09-.03c.03-.02.05-.05.11-.11v-2.3h2.16 0zm91.47 2.42v-62.6h-11.3v60.21h2.23v2.39h9.07zm-274.35-.01h9.12v-2.41h2.21v-60.18H85.34v62.59zm261.97-2.42V210.9c-2.73-.13-8.88-.08-9.67.06v62.55h9.67zm-43.94-62.63v62.63h9.66v-62.63h-9.66zm-24.4 62.63V210.9c-2.94-.13-8.88-.08-9.67.07v62.54h9.67zm-43.54-62.63v62.61c2.52.12 8.87.08 9.67-.06v-62.55h-9.67zm-25.82 62.63V210.9c-2.56-.12-8.88-.08-9.67.06v62.55h9.67zm-43.54-62.63v62.61c3.08.13 8.89.08 9.67-.07v-62.54h-9.67zm-34.07 0v62.61c2.41.12 8.88.08 9.67-.06v-62.55h-9.67zm-34.27 0v62.61c2.46.12 8.88.08 9.67-.06v-62.55h-9.67zm-13.41 65.06v-63.66h12.21s.06-.02.08-.04.04-.05.02-.03v-1.37h-2.21v-3H79.26v68.09h5.04zm264.06-63.62h12.38v63.61h4.99v-68.08h-15.19v3.04h-2.19v1.43h0zm-137.7-.07h23.65v-1.43h-1.98v-2.97h-19.67v1.54c-.01.49.05.99-.04 1.51h-1.96v1.35h0zm125.88.02v-1.41h-2v-3.01c-4.84-.14-17.31-.08-18.28.09v2.94h-2.16v1.4h22.44zm-228.09-.02h22.5c-.04-.49.04-.94-.07-1.43h-2.18v-2.97h-18.24v1.54c-.01.49.05.99-.04 1.51h-1.96v1.35h0zm171.57 0h22.24v-1.43h-1.98v-2.97h-18.04v1.54c-.01.49.05.99-.04 1.51h-2.17v1.35h0zm-137.3.01h22.24v-1.42h-2.18v-1.54c-.01-.49.05-.99-.03-1.45h-18.04v3.04h-1.98v1.37h0zm123.49-4.41h-17.88v3.04h-2.23c.06.49-.04.95.06 1.36h22.02v-1.42h-1.98v-2.98zm-89.42 4.4h22.04v-1.42h-2.18v-1.54c-.01-.49.05-.99-.03-1.44h-17.84v3.04h-1.98v1.35h0zm56.6-4.41v1.98c3.33.13 13.08.08 13.92-.06v-1.92H233.4zm-21.76.01h-13.97v1.03c0 .32.02.65.03.94h13.94v-1.97h0zm-33.88 1.98v-1.96h-13.92v1.96h13.92zm-34.06-1.97h-13.96v1.96h13.96v-1.96zm-34.27 0H95.46v1.03c0 .32.02.65.03.93h13.94v-1.96h0zm191.89 1.96h13.97v-1.03c0-.32-.02-.65-.03-.93h-13.94v1.96zm-20.12-1.96h-13.97v1.03c0 .32.02.64.03.93h13.94v-1.96h0zm54.41-.02v1.98c3.27.13 13.08.08 13.92-.06v-1.92h-13.92zM95.47 275.93h14.12v-1.36H95.47v1.36zm48.44-1.35h-14.16v1.35h14.16v-1.35zm19.91 1.35h14.16v-1.35h-14.16v1.35zm48.01.02v-1.37c-3.39-.13-13.28-.08-14.13.06v1.31h14.13zm35.49 0v-1.37c-3.31-.13-13.28-.08-14.13.06v1.31h14.13zm33.87 0v-1.37c-3.31-.13-13.28-.08-14.13.06v1.31h14.13zm19.92-.02h14.16v-1.35h-14.16v1.35zm48.44-1.39h-14.21c.08.52-.04.98.08 1.42h14.13v-1.42z"/><use xlink:href="#F"/><path d="M352.99 195.05c-1.34-.04-2.48-.48-3.43-1.5-.92-1-1.42-2.1-1.43-3.46-.01-2.44 2.34-4.84 4.94-4.79 2.35.04 4.85 2.18 4.82 4.93-.03 2.55-2.29 4.9-4.91 4.83h0zm-13.76-4.85c-.05 1.46-.61 2.65-1.72 3.65-.95.85-2.03 1.18-3.25 1.2-2.59.04-4.82-2.45-4.79-4.94.03-2.47 2.36-4.85 4.93-4.82 2.37.03 4.92 2.19 4.83 4.91zm-18.66.01c-.02 1.47-.61 2.66-1.73 3.64a4.59 4.59 0 0 1-3.25 1.19c-1.31-.03-2.41-.49-3.33-1.48-.93-1-1.42-2.1-1.43-3.46-.02-2.45 2.34-4.84 4.93-4.8 2.36.04 4.91 2.18 4.82 4.92h0zm-18.65.01c-.04 1.47-.61 2.66-1.74 3.63-.85.74-1.9 1.22-3.25 1.18-1.31-.03-2.41-.49-3.33-1.49s-1.42-2.1-1.43-3.46c-.02-2.44 2.34-4.84 4.94-4.8 2.36.04 4.91 2.18 4.81 4.93h0z"/><use xlink:href="#F" x="37.32"/><path d="M264.6 190.2c-.04 1.47-.61 2.65-1.72 3.64-.95.85-2.03 1.18-3.25 1.2-2.59.04-4.82-2.45-4.79-4.94.03-2.47 2.36-4.85 4.93-4.81 2.37.03 4.92 2.18 4.83 4.91h0zm-37.32.06c.03 2.51-2.27 4.88-4.92 4.79-1.35-.05-2.48-.5-3.42-1.52-.92-1-1.42-2.11-1.4-3.47.02-1.33.57-2.4 1.51-3.32.97-.95 2.1-1.44 3.46-1.42 1.45.02 2.58.67 3.54 1.71.8.86 1.22 1.89 1.22 3.24h0zm-23.6 4.8c-2.62.04-4.83-2.46-4.81-4.93.02-2.44 2.34-4.94 5.02-4.82 1.45.06 2.56.71 3.54 1.73.88.92 1.21 2.02 1.2 3.25-.02 1.44-.63 2.57-1.7 3.55-.94.87-2.03 1.17-3.24 1.22h0zm-37.2-9.75c2.37-.05 4.9 2.17 4.83 4.89-.04 1.49-.64 2.64-1.72 3.65-.94.87-2.03 1.18-3.25 1.2-2.59.04-4.82-2.45-4.79-4.94.03-2.47 2.36-4.91 4.93-4.8h0zm-23.57 4.79c-.05-2.46 2.34-4.84 4.92-4.81 2.35.03 4.95 2.19 4.82 5.01-.07 1.44-.66 2.57-1.72 3.54-.94.86-2.03 1.18-3.25 1.2-2.59.04-4.88-2.45-4.77-4.94h0zm-8.92.12c.05 2.55-2.27 4.9-4.88 4.83-1.35-.04-2.49-.48-3.43-1.5-.92-1-1.42-2.1-1.43-3.46-.01-2.44 2.34-4.84 4.94-4.79 2.35.04 4.91 2.18 4.8 4.93zm-18.65-.03c-.04 1.47-.61 2.65-1.71 3.65-.95.85-2.03 1.18-3.25 1.2-2.6.05-4.82-2.45-4.8-4.93.03-2.46 2.35-4.85 4.92-4.82 2.38.02 4.92 2.19 4.84 4.9h0zm-18.67.06c.03 2.52-2.27 4.88-4.92 4.79-1.35-.05-2.48-.5-3.42-1.52-.92-1-1.42-2.11-1.4-3.47.02-1.34.57-2.4 1.51-3.32.97-.95 2.1-1.45 3.46-1.43 1.45.02 2.58.67 3.54 1.71.81.87 1.22 1.88 1.22 3.24zm88.35 4.81c-2.62.04-4.83-2.46-4.81-4.93.02-2.44 2.34-4.94 5.02-4.82 1.45.06 2.56.71 3.54 1.73.88.92 1.21 2.02 1.2 3.25-.02 1.44-.63 2.57-1.69 3.55-.94.87-2.03 1.17-3.24 1.22h0zm41.82 53.91h-8.86v-31.11c.79-.14 6.21-.18 8.86-.06v31.17zm94.17-31.19h8.85v31.11c-.78.15-5.72.2-8.85.07v-31.18zm-197.2 31.19h-8.86v-31.11c.79-.15 6.05-.19 8.86-.06v31.18zm171.58 0h-8.86v-31.11c.79-.14 6.28-.18 8.86-.06v31.17zM158.1 217.79v31.16h-8.81c-.15-.87-.21-27.6-.06-31.16h8.87 0zm25-.01h8.86v31.11c-.79.14-6.26.18-8.86.06v-31.17zm78.41 31.19h-8.85v-31.19h8.85v31.19z"/></g><path d="M51.31 278.13v-69.82l.98-.19v-3.7l.99-.1v-6.36c.91.08.85-.49.85-1.08v-11.33-1.16l.99-.09v-15.06h334.39v14.98l1.06.21v9.41l.02 3.13c.03.39.31.77.48 1.16l.31-.08v6.22l1.02.18v3.71l.96.09v69.89H51.31zm4.88-93.87h332.29v-14.03H56.19v14.03zm333.3 1.15H55.21v12.42h334.28v-12.42zm.82 13.56H54.37v5.34h335.94v-5.34zM78.15 277.15V209.3H52.34v67.85h25.81zm288.37-67.89v67.85h25.8v-67.85h-25.8zm-132.4 65.53v-60.03h-23.58v60.02h2.22v2.37h4.62v-1.13-13.85c0-1.34.37-2.53 1.27-3.53 1.38-1.55 3.52-2.07 5.45-1.34s3.2 2.49 3.21 4.6v14.16 1.08h4.68v-2.33h2.14zm157.2-69.34H53.36v2.71h337.96v-2.71zm-55.12 69.33v-60.02h-22.36v60.02h2.22v2.35h4.01v-1.14-13.85c0-1.34.38-2.52 1.27-3.52 1.39-1.55 3.52-2.06 5.45-1.33 1.93.74 3.19 2.49 3.2 4.6v14.16 1.07h4.08v-2.34h2.13zm-205.39 0v-60.02h-22.36v60.02h2.22v2.35h3.6v-1.14-13.65c0-.44 0-.88.08-1.31.51-2.58 2.8-4.3 5.36-4.05 2.5.24 4.45 2.33 4.47 4.92l.01 14.16v1.06h4.49v-2.34h2.12zm149.02-60.05v60.09h2.2v2.3h3.6v-1.17-13.85c0-1.3.38-2.46 1.24-3.44 1.37-1.56 3.51-2.1 5.44-1.39s3.23 2.48 3.24 4.57l.01 14.26v1.04h4.28v-2.42h2.15v-59.99h-22.16zm-137.13 0v60.09h2.2v2.3h3.61v-1.17-13.85c0-1.3.38-2.46 1.23-3.44 1.37-1.56 3.51-2.1 5.44-1.39s3.23 2.48 3.24 4.57l.01 14.26v1.04h4.28v-2.42h2.15v-59.99H142.7zm125.24 60.06v-60.03h-21.96v60.02h2.22v2.36h3.61V276v-13.85c0-1.34.37-2.52 1.27-3.53a4.91 4.91 0 0 1 5.45-1.33c1.93.73 3.19 2.49 3.2 4.6v14.16 1.07h4.08v-2.33h2.13zm-69.27 0v-60.03h-21.96v60.02h2.22v2.36h3.4V276v-13.85c0-1.34.37-2.52 1.27-3.53a4.91 4.91 0 0 1 5.45-1.33c1.93.73 3.19 2.49 3.2 4.6v14.16 1.07h4.28v-2.33h2.13zm149.42-60.06v60.06h2.17v2.33h9.05v-62.39h-11.22zM96.58 274.79v-60.06H85.37v62.39h9.08v-2.33h2.13zm250.35-.07V212.3h-9.59v62.42h9.59zm-43.81-62.42v62.38h9.6V212.3h-9.6zm-34.03 0v62.38h9.61V212.3h-9.61zm-33.82 0v62.38h9.6V212.3h-9.6zm-25.87 62.43v-62.42h-9.58v62.42h9.58zm-33.82-.01v-62.38h-9.6v62.38h9.6zm-34.03 0v-62.38h-9.6v62.38h9.6zM97.74 212.3v62.42h9.59V212.3h-9.59zm-18.44-3.04v67.85h5.06v-63.48h12.23v-1.43h-2.2v-2.94H79.3zm281.11 4.4v63.45h4.98v-67.83h-15.17v3.03h-2.14v1.35h12.34zm-128.24-4.37h-19.71v3h-1.9v1.31h23.59v-1.35h-1.97v-2.96zm81.66 4.31h22.36v-1.38h-1.97v-2.93h-18.26v3h-2.14v1.31zm-203.38-1.31h-2v1.33h22.38v-1.4h-2.22v-2.95h-18.15v3.02zm189.58-3h-18.09v3h-2.12v1.32h22.14v-1.38h-1.93v-2.94zm-135.17 2.95h-2.22v-2.94h-18.02v2.98h-1.92v1.32h22.16v-1.36zm103.11 1.39v-1.34l-2.01-.09v-2.91h-17.82v2.97h-2.13v1.37h21.96zm-71.44-4.34h-17.89v3h-1.91v1.31h21.93v-1.38h-2.13v-2.94zm36.69 1.88h13.89v-1.9h-13.89v1.9zm-35.65 0h13.85v-1.9h-13.85v1.9zm-19.94-1.88h-13.85v1.9h13.85v-1.9zm-34.03 0h-13.89v1.9h13.89v-1.9zm-48.12 1.88h13.89v-1.9H95.48v1.9zm205.59 0h13.89v-1.9h-13.89v1.9zm-20.12-1.89h-13.88v1.88h13.88v-1.88zm54.36-.02v1.92h13.85v-1.92h-13.85zM95.48 275.82v1.32h14.08v-1.32H95.48zm34.23 1.3h14.09v-1.29h-14.09v1.29zm48.15-1.28h-14.09v1.28h14.09v-1.28zm33.83 0H197.6v1.28h14.09v-1.28zm35.44 0h-14.09v1.28h14.09v-1.28zm33.8 0h-14.09v1.3h14.09v-1.3zm34.06.01H300.9v1.26h14.09v-1.26zm34.23 0h-14.09v1.26h14.09v-1.26zm-103.4-84.28c.03 2.75-2.14 4.96-4.9 4.99-2.75.03-4.97-2.14-4.99-4.89-.03-2.75 2.14-4.96 4.9-4.99a4.91 4.91 0 0 1 4.99 4.89zm111.8.08c-.02 2.75-2.23 4.93-4.98 4.9-2.76-.02-4.93-2.23-4.91-4.98a4.91 4.91 0 0 1 4.98-4.9c2.76.02 4.93 2.23 4.91 4.98zm-23.61 4.91c-2.76-.02-4.93-2.22-4.91-4.97s2.22-4.93 4.98-4.91 4.93 2.22 4.91 4.97-2.22 4.93-4.98 4.91zm-13.66-4.89a4.91 4.91 0 0 1-4.99 4.89c-2.76-.03-4.93-2.24-4.9-4.99a4.91 4.91 0 0 1 4.99-4.89c2.76.03 4.93 2.24 4.9 4.99z"/><use xlink:href="#G"/><path d="M278.09 186.68a4.92 4.92 0 0 1 5 4.89c.03 2.75-2.14 4.96-4.9 4.99a4.92 4.92 0 0 1-5-4.89c-.03-2.75 2.14-4.96 4.9-4.99zm-18.57 0a4.9 4.9 0 0 1 4.93 4.95c0 2.75-2.2 4.94-4.96 4.93-2.76 0-4.94-2.2-4.94-4.95s2.2-4.94 4.96-4.93zm-32.34 4.91c.02 2.75-2.16 4.95-4.91 4.97a4.92 4.92 0 0 1-4.98-4.91c-.02-2.75 2.16-4.95 4.91-4.97s4.96 2.15 4.98 4.91zm-23.57 4.97c-2.75 0-4.95-2.18-4.95-4.93s2.18-4.94 4.94-4.94 4.95 2.18 4.95 4.93a4.92 4.92 0 0 1-4.94 4.95zm-32.33-4.99c.03 2.75-2.14 4.96-4.9 4.99a4.92 4.92 0 0 1-5-4.89c-.03-2.75 2.14-4.96 4.9-4.99a4.92 4.92 0 0 1 5 4.89zm-18.64.14a4.92 4.92 0 0 1-5.04 4.85c-2.76-.05-4.91-2.29-4.85-5.03a4.92 4.92 0 0 1 5.04-4.85c2.76.05 4.91 2.29 4.85 5.03zm-23.58-5.03c2.76 0 4.95 2.19 4.95 4.94a4.91 4.91 0 0 1-4.94 4.94 4.92 4.92 0 0 1-4.95-4.94 4.91 4.91 0 0 1 4.94-4.94z"/><use xlink:href="#G" x="-186.35"/><path d="M96.74 191.64c-.01 2.75-2.21 4.93-4.97 4.92a4.9 4.9 0 0 1-4.92-4.96c.01-2.75 2.21-4.93 4.97-4.92a4.9 4.9 0 0 1 4.92 4.96zm93.17-.04c0 2.75-2.18 4.94-4.93 4.95a4.92 4.92 0 0 1-4.96-4.93c0-2.75 2.18-4.94 4.93-4.95a4.92 4.92 0 0 1 4.96 4.93zm27.94 27.58h8.79v31.03h-8.79v-31.03zm102.89 0h8.79v31.03h-8.79v-31.03zm-197.01 31.06h-8.79v-31.03h8.79v31.03zm171.35 0h-8.79v-31.03h8.79v31.03zm-137.1-31.04v31.03h-8.79V219.2h8.79zm94.48 31.03v-31.02h8.8v31.02h-8.8zm-69.45-31.05h8.79v31.03h-8.79v-31.03zm41-137.56c-24.89 0-46.92 9.46-60.46 24.01l11.22 17.3c9.85-13.16 28.21-22.02 49.24-22.02 19.47 0 36.65 7.59 46.92 19.17l11.63-16.42c-13.65-13.42-34.8-22.03-58.55-22.03h0zm-2 43.29a55.61 55.61 0 0 0-36.91 13.94l9.48 14.62c7.41-6.24 16.98-10 27.43-10 9.82 0 18.85 3.31 26.05 8.88l10.06-14.2c-9.73-8.25-22.33-13.23-36.11-13.23h0zm1.68-86.26c-32.71 0-62.09 12.66-82.33 32.77L152 87.81C166.95 70.5 193.25 59 223.2 59s55.85 11.32 70.87 28.41l11.59-16.35c-20.23-19.9-49.46-32.41-81.97-32.41h0zm-2.58 325.36c24.89 0 46.92-9.46 60.46-24.01l-11.22-17.3c-9.85 13.16-28.21 22.02-49.24 22.02-19.47 0-36.65-7.59-46.92-19.17l-11.63 16.42c13.65 13.42 34.8 22.03 58.55 22.03h0zm2-43.29a55.61 55.61 0 0 0 36.91-13.94l-9.48-14.62c-7.41 6.24-16.98 10-27.43 10-9.82 0-18.85-3.31-26.05-8.88L187 307.48c9.73 8.25 22.33 13.23 36.11 13.23h0zm-1.68 86.25c32.71 0 62.09-12.66 82.33-32.77l-10.64-16.39c-14.95 17.31-41.25 28.81-71.2 28.81s-55.85-11.32-70.87-28.41l-11.59 16.35c20.23 19.9 49.46 32.41 81.97 32.41h0z"/></svg>