<?xml version="1.0" encoding="UTF-8"?><svg id="a" xmlns="http://www.w3.org/2000/svg" xmlns:xlink="http://www.w3.org/1999/xlink" viewBox="0 0 445.01 445"><defs><style>.f{fill:url(#e);opacity:.66;}.f,.g,.h,.i,.j,.k,.l{stroke-width:0px;}.f,.j,.k{isolation:isolate;}.g{fill:#000;}.h{fill:#0c0c0c;}.m{fill:url(#c);stroke:#fff;stroke-width:4.47px;}.m,.n{stroke-linecap:round;stroke-linejoin:round;}.i{fill:url(#d);}.n{fill:url(#b);stroke:#000;stroke-width:2.24px;}.j{fill:#494949;opacity:.44;}.k{fill:#f0f2ff;opacity:.6;}.l{fill:#fefefe;}</style><linearGradient id="b" x1="198.46" y1="-259.6" x2="198.46" y2="166.4" gradientTransform="translate(.23 170.16) scale(1.12 -1.12)" gradientUnits="userSpaceOnUse"><stop offset="0" stop-color="#333"/><stop offset="1" stop-color="#ccc"/></linearGradient><linearGradient id="c" x1="205.25" y1="324.94" x2="205.25" y2="750.94" gradientTransform="translate(4.96 -347.43) scale(1.06)" gradientUnits="userSpaceOnUse"><stop offset="0" stop-color="#333"/><stop offset="1" stop-color="#ccc"/></linearGradient><linearGradient id="d" x1="-261.59" y1="311.74" x2="-160.81" y2="194.66" gradientTransform="translate(-44.39 135.9) rotate(-132.15)" gradientUnits="userSpaceOnUse"><stop offset="0" stop-color="#fff"/><stop offset="1" stop-color="#fff" stop-opacity="0"/></linearGradient><linearGradient id="e" x1="-132.42" y1="285.49" x2="-165.37" y2="117.65" gradientTransform="translate(-44.39 135.9) rotate(-132.15)" gradientUnits="userSpaceOnUse"><stop offset="0" stop-color="#fff"/><stop offset="1" stop-color="#fff" stop-opacity="0"/></linearGradient></defs><path class="n" d="M443.89,222.5C443.89,100.24,344.77,1.12,222.5,1.12S1.12,100.24,1.12,222.5s99.12,221.38,221.38,221.38,221.38-99.12,221.38-221.38h.01Z"/><path class="m" d="M431.81,222.46c0,115.58-93.7,209.29-209.29,209.29S13.24,338.04,13.24,222.46,106.94,13.17,222.52,13.17s209.29,93.7,209.29,209.29Z"/><path class="g" d="M424.66,222.45c0,111.65-90.51,202.16-202.16,202.16S20.34,334.09,20.34,222.45,110.86,20.29,222.5,20.29s202.16,90.51,202.16,202.16h0Z"/><path class="h" d="M421.67,223.61c0,109.44-88.72,198.16-198.16,198.16S25.35,333.05,25.35,223.61,114.08,25.45,223.51,25.45s198.16,88.72,198.16,198.16h0Z"/><path class="k" d="M228.12,222.67c0,2.15-1.74,3.89-3.89,3.89s-3.89-1.74-3.89-3.89,1.74-3.89,3.89-3.89,3.89,1.74,3.89,3.89Z"/><path class="j" d="M222.51,25.3C116.93,25.3,31.35,103.93,31.35,200.96c0,5.18.25,10.31.73,15.38,0,0,50.45,14.41,76.3,18.45,37.74,5.89,76.1,8.73,114.3,8.3,38.27-.43,76.62-4.16,114.3-10.89,25.9-4.62,76.3-20.17,76.3-20.17.25-3.66.38-7.35.38-11.06.01-97.03-85.57-175.67-191.15-175.67h0Z"/><path class="i" d="M22.54,224.08c.37-110.06,89.94-199.41,200.04-199.56,55.66-.08,108.71,23.1,146.32,63.94l-146.99,135.34s-199.37.28-199.37.28Z"/><path class="f" d="M22.54,224.08c.37-110.06,89.94-199.41,200.04-199.56,55.66-.08,108.71,23.1,146.32,63.94l-146.99,135.34s-199.37.28-199.37.28Z"/><path class="l" d="M49.67,277.54v-70.45h1v-3.85h1v-6.52c.3-.02.53-.03.83-.05v-13.62h1v-15.18c1.08-.18,330.51-.26,336.79-.09v15.21c.35.03.67.05,1.03.08v13.58c.28.02.54.05.83.07v6.48h1.03v3.85h.94c.04.12.08.21.08.3.01.13,0,.27,0,.41v69.79H49.67ZM54.56,183h334.71v-14.19H54.56v14.19ZM390.29,184.09H53.56c-.14,3.1-.09,11.77.07,12.56h336.67v-12.56h0ZM391.11,197.74H52.72v5.43h338.38v-5.43h.01ZM393.13,276.53v-68.4c-3.78-.16-25.2-.09-26.04.07v68.33h26.04ZM50.7,208.11v68.4c3.81.16,25.2.09,26.04-.07v-68.33h-26.04ZM216.92,276.53v-15.16c0-.45.09-.9.17-1.35.22-1.3,1-2.2,1.94-2.96.6-.49,1.41-.68,2.17-.88.44-.12,1.91.01,2.35.21,2.04.91,3.31,2.34,3.34,4.66.07,4.82.02,9.64.02,14.46v.99h4.73v-2.4h2.18v-60.46h-23.81v60.48h2.25v2.4h4.66ZM51.7,207.04h340.44v-1.44c-.01-.46.05-.93-.04-1.34H51.7v2.79h0ZM113.09,276.53v-15.16c0-.45.09-.9.17-1.35.22-1.3,1-2.2,1.94-2.96.6-.49,1.41-.68,2.17-.88.44-.12,1.91.01,2.35.21,2.04.91,3.31,2.35,3.34,4.66.07,4.82.02,9.64.02,14.46v.99h4.52v-2.4h2.18v-60.46h-22.58v60.48h2.25v2.4h3.64ZM336.64,213.63h-22.58v60.5h2.2v1.24c0,.39.02.79.02,1.14h4.06v-15.19c0-1.46.48-2.72,1.55-3.74,1.48-1.4,3.25-1.8,5.11-1.12,2.14.78,3.31,2.51,3.32,4.76.03,4.85,0,9.71,0,14.56v.74h4.08v-2.42h2.23v-60.47h.01ZM147.56,276.52v-1.07c0-4.79,0-9.57,0-14.36,0-.57.11-1.13.3-1.61.63-1.54,1.65-2.78,3.63-3.11.93-.5,1.9-.23,2.75.09,2.1.79,3.3,2.5,3.31,4.76.02,4.75,0,9.5,0,14.26v1.02h4.3v-2.42h2.21v-60.45h-22.39c-.17,6.36-.1,59.47.09,60.51h2.14v2.38h3.67ZM285.66,276.53v-15.47c0-1.03.31-2.01.9-2.78,1.43-1.85,3.39-2.65,5.73-1.85,2.11.72,3.32,2.32,3.35,4.62.07,4.82.02,9.64.02,14.46v1.04c1.47-.03,2.88.03,4.32-.04v-2.42h2.18v-60.45h-22.38v60.48h2.25v2.4h3.64-.01ZM195.94,276.53v-2.43h2.18v-60.45h-22.18v60.48h2.25v2.42h1.75c.56,0,1.13.02,1.68-.01v-15.47c0-1.03.31-2.01.9-2.78,1.43-1.85,3.38-2.65,5.73-1.85,2.11.72,3.32,2.32,3.35,4.62.07,4.82.02,9.64.02,14.46v1.01h4.32ZM251.6,276.52v-15.42c0-.72.19-1.39.48-2.04.5-1.11,1.32-1.91,2.43-2.42,1.23-.57,2.53-.67,3.77-.18,2.1.82,3.3,2.51,3.31,4.77.02,4.85,0,9.71,0,14.56,0,.26.03.51.04.72h4.05v-2.42h2.21v-60.45h-22.19c-.16,5.35-.09,59.47.08,60.51h2.14v2.38h3.68ZM350.73,276.52h9.14v-62.89h-11.33v60.5h2.19v2.39h0ZM83.95,213.62v62.9c2.48.12,8.32.08,9.18-.07v-2.34h2.17v-60.48h-11.36.01ZM347.44,274.09v-62.89c-2.34-.12-8.94-.08-9.73.05v62.84h9.73ZM303.24,211.17v62.89c2.34.12,8.93.08,9.73-.05v-62.84h-9.73ZM268.97,211.17v62.92h9.72v-62.92h-9.72ZM234.9,211.17v62.9c2.6.12,8.93.08,9.73-.06v-62.84h-9.73ZM199.19,274.07h9.74c.15-3.9.09-61.99-.06-62.88h-9.68v62.88ZM174.88,211.19h-9.74c-.16,4.11-.09,61.98.07,62.88h9.68v-62.88h-.01ZM130.87,211.17v62.92h9.72v-62.92h-9.72ZM106.12,274.09v-62.89c-2.43-.12-8.93-.08-9.73.06v62.84h9.73ZM82.92,276.53v-63.98h12.38v-1.4h-1.14c-.36,0-.72-.02-1.11-.03v-3.01h-15.23v68.42h5.1ZM366.02,208.13h-15.29v3.03h-2.21v1.44h12.43v63.91h5.07v-68.38ZM231.81,208.12h-19.82v3.06h-2.03c.04.49-.04.95.05,1.37h23.78v-1.43h-1.99v-3h0ZM314.04,212.54h22.6v-1.4h-2.03v-3.01h-18.35v3.03h-2.21v1.38h-.01ZM127.53,211.16v-3.01h-18.35v2.99c-.69.06-1.36-.03-1.98.06v1.35h22.58v-1.38h-2.25ZM279.77,212.55h22.37v-1.43h-1.99v-2.99h-18.15v1.54c-.01.49.05.99-.04,1.52h-2.18v1.36h0ZM161.84,208.13h-18.15v1.54c0,.5.05,1-.04,1.52h-1.98v1.36h22.37v-1.43h-2.2v-2.99h0ZM245.7,212.55h22.23c-.04-.49.04-.95-.07-1.43h-1.99v-2.99h-17.94v1.54c0,.49.05.99-.04,1.52h-2.18v1.36h-.01ZM175.94,212.54h22.22c-.05-.49.05-.95-.07-1.43h-2.19v-2.98h-17.94v1.55c0,.49.05.99-.05,1.51h-1.97v1.35h0ZM232.85,210.1h14.06v-1.03c0-.33-.02-.65-.03-.94h-14.02v1.98h0ZM210.98,208.13h-14.06v1.04c0,.32.02.65.03.93h14.02v-1.97h0ZM176.92,208.13h-14.06v1.03c0,.33.02.65.03.94h14.02v-1.97h0ZM128.61,210.1h14.06v-1.04c0-.33-.02-.65-.03-.94h-14.02v1.97h0ZM108.15,210.12v-1.99c-3.25-.13-13.15-.08-14,.06v1.93h14ZM301.18,210.1h14.06v-1.04c0-.33-.02-.65-.03-.94h-14.02v1.97h-.01ZM280.95,208.13h-14.06v1.04c0,.32.02.65.03.93h14.02v-1.97h.01ZM349.7,208.13h-14.06v1.04c0,.32.02.65.03.93h14.02v-1.97h.01ZM94.13,276.52h14.24v-1.36h-14.24v1.36ZM142.85,275.16h-14.21v1.37h14.21v-1.37ZM177.12,275.16h-14.24v1.36h14.24v-1.36ZM196.95,276.52h14.27c-.05-.49.05-.95-.06-1.36h-14.22v1.36h0ZM232.64,276.52h14.27c-.04-.49.05-.95-.05-1.36h-14.22v1.36ZM280.95,275.16h-14.24v1.36h14.24v-1.36ZM315.22,275.16h-14.21v1.36h14.21v-1.36ZM349.68,276.54v-1.38c-3.36-.13-13.35-.08-14.21.06v1.31h14.21Z"/><path class="l" d="M245.5,189.68c-.04,2.2-.64,3.38-1.75,4.38-.95.86-2.04,1.18-3.27,1.2-2.6.04-4.85-2.46-4.81-4.97.03-2.47,2.37-4.87,4.96-4.83,2.38.03,4.95,2.19,4.87,4.22ZM358.08,190.43c.04,2.55-2.28,4.91-4.93,4.83-1.36-.04-2.5-.49-3.45-1.52-.93-1-1.42-2.12-1.42-3.48,0-2.43,2.35-4.85,4.99-4.8,2.35.05,4.93,2.2,4.81,4.97h0ZM335.01,195.24c-3.29.12-5.54-2.46-5.51-4.94.04-2.47,2.37-4.87,4.97-4.83,2.38.03,4.93,2.19,4.85,4.93-.04,1.45-.6,2.59-1.66,3.59-.94.89-2.03,1.19-2.65,1.25h0ZM320.54,190.45c.03,2.52-2.28,4.9-4.95,4.81-1.35-.05-2.5-.5-3.44-1.53-.92-1.01-1.43-2.12-1.4-3.49.03-1.38.61-2.47,1.6-3.41.96-.92,2.08-1.37,3.41-1.36,1.46.02,2.59.68,3.56,1.72.8.86,1.23,1.9,1.23,3.25h-.01ZM301.77,189.87c.04,3.11-2.28,5.43-4.95,5.41-2.63-.02-4.96-2.48-4.84-5.04.06-1.37.62-2.47,1.6-3.4.96-.91,2.08-1.37,3.41-1.35,1.46.02,2.57.7,3.57,1.72.9.93,1.17,2.04,1.21,2.67h0ZM278.49,185.48c2.06-.03,4.57,2.19,4.54,4.94-.03,2.54-2.31,4.96-5.04,4.84-1.32-.06-2.42-.52-3.35-1.51-.93-1-1.45-2.11-1.43-3.48.02-1.38.6-2.47,1.57-3.42.96-.93,2.07-1.4,3.7-1.38h0ZM264.24,190.41c.05,2.56-2.28,4.92-4.91,4.85-1.36-.04-2.5-.48-3.45-1.51-.93-1-1.43-2.11-1.43-3.48,0-2.45,2.36-4.86,4.97-4.81,2.37.04,4.93,2.2,4.83,4.95h0ZM226.72,190.44c.02,2.53-2.29,4.91-4.96,4.82-1.35-.05-2.5-.5-3.44-1.53-.93-1.01-1.43-2.12-1.41-3.49.02-1.34.58-2.41,1.52-3.34.97-.96,2.11-1.45,3.48-1.43,1.46.02,2.57.69,3.57,1.71.9.93,1.19,2.03,1.24,3.25h0ZM202.97,195.28c-2.63.04-4.86-2.47-4.84-4.96.02-2.45,2.35-4.96,5.04-4.85,1.46.06,2.57.71,3.56,1.74.89.93,1.22,2.03,1.2,3.26-.02,1.44-.63,2.58-1.7,3.57-.95.87-2.04,1.17-3.26,1.23h0ZM184.2,195.26c-2.63.05-4.85-2.46-4.84-4.94.02-2.46,2.36-4.96,5.04-4.85,1.46.06,2.57.71,3.56,1.74.89.93,1.22,2.03,1.2,3.26,0,1.44-.61,2.6-1.71,3.56-.89.78-1.9,1.22-3.26,1.22h.01ZM141.85,190.31c-.05-2.48,2.35-4.87,4.94-4.84,2.37.02,4.99,2.2,4.86,5.02-.06,1.45-.66,2.59-1.73,3.56-.95.87-2.04,1.19-3.27,1.21-2.61.05-4.91-2.46-4.8-4.96h0ZM127.96,195.27c-1.35-.04-2.5-.49-3.45-1.51-.93-1-1.43-2.11-1.43-3.48-.01-2.45,2.36-4.86,4.97-4.81,2.37.04,4.88,2.19,4.84,4.95-.03,2.56-2.3,4.92-4.93,4.85h0ZM109.07,185.47c1.66-.02,2.81.68,3.82,1.73.89.93,1.2,2.03,1.21,3.26.03,2.5-2.28,4.83-4.97,4.81-2.63-.03-4.86-2.48-4.84-4.96.02-2.48,2.36-4.94,4.78-4.85h0ZM95.34,190.45c.03,2.52-2.28,4.9-4.95,4.81-1.35-.05-2.5-.5-3.44-1.53-.92-1.01-1.43-2.12-1.4-3.49.02-1.34.57-2.41,1.52-3.34.98-.96,2.11-1.45,3.48-1.43,1.46.02,2.59.68,3.56,1.72.8.86,1.23,1.9,1.23,3.25h0ZM160.62,190.3c-.05-2.48,2.35-4.87,4.94-4.84,2.37.03,4.98,2.2,4.86,5.03-.06,1.45-.67,2.58-1.73,3.56-.94.87-2.04,1.19-3.27,1.21-2.61.04-4.91-2.46-4.8-4.96ZM217.36,218.1h8.91v31.25c-.78.15-5.79.2-8.91.07v-31.32ZM113.73,218.1h8.91v31.26c-.79.14-6.38.18-8.91.06,0,0,0-31.32,0-31.32ZM320.99,218.1h8.91v31.26c-.79.14-6.21.19-8.91.06v-31.32ZM148.21,218.1h8.91v31.25c-.79.15-5.89.2-8.91.07v-31.32ZM295.22,249.44h-8.91v-31.26c.79-.14,6.44-.18,8.91-.06v31.32ZM191.18,249.44h-8.91v-31.26c.81-.15,6.11-.19,8.91-.06v31.32ZM252.24,218.1h8.91v31.25c-.79.15-5.91.2-8.91.07v-31.32h0Z"/></svg>