<svg xmlns="http://www.w3.org/2000/svg" xmlns:xlink="http://www.w3.org/1999/xlink" viewBox="0 0 445 445" xmlns:v="https://vecta.io/nano"><style><![CDATA[.F,.H,.E{isolation:isolate}]]></style><defs><linearGradient id="A" x1="222.894" y1="460.917" x2="222.894" y2="-16.203" gradientUnits="userSpaceOnUse"><stop offset="0" stop-color="#333"/><stop offset="1" stop-color="#ccc"/></linearGradient><linearGradient id="B" x1="223.163" y1="-2.996" x2="223.163" y2="448.564" gradientUnits="userSpaceOnUse"><stop offset="0" stop-color="#333"/><stop offset="1" stop-color="#ccc"/></linearGradient><linearGradient id="C" x1="5.38" y1="252.69" x2="106.16" y2="369.77" gradientTransform="translate(553.23 -44.96) rotate(-132.15) scale(1 -1)" gradientUnits="userSpaceOnUse"><stop offset="0" stop-color="#fff"/><stop offset="1" stop-color="#fff" stop-opacity="0"/></linearGradient><linearGradient id="D" x1="134.55" y1="278.95" x2="101.6" y2="446.79" gradientTransform="translate(553.23 -44.96) rotate(-132.15) scale(1 -1)" gradientUnits="userSpaceOnUse"><stop offset="0" stop-color="#fff"/><stop offset="1" stop-color="#fff" stop-opacity="0"/></linearGradient><path id="E" d="M22.54 224.08c.37-110.06 89.94-199.41 200.04-199.56 55.66-.08 108.71 23.1 146.32 63.94L221.91 223.8l-199.37.28z"/></defs><g stroke-linejoin="round"><path d="M443.89 222.5c0-122.26-99.12-221.38-221.39-221.38S1.12 100.24 1.12 222.5s99.12 221.38 221.38 221.38 221.38-99.12 221.38-221.38z" fill="url(#A)" stroke="#000" stroke-width="2.24"/><path d="M431.81,222.46c0,115.58-93.7,209.29-209.29,209.29S13.24,338.04,13.24,222.46,106.94,13.17,222.52,13.17s209.29,93.7,209.29,209.29Z" fill="url(#B)" stroke="#fff" stroke-width="4.47"/></g><path d="M424.66,222.45c0,111.65-90.51,202.16-202.16,202.16S20.34,334.09,20.34,222.45,110.86,20.29,222.5,20.29s202.16,90.51,202.16,202.16Z"/><path d="M421.67,223.61c0,109.44-88.72,198.16-198.16,198.16S25.35,333.05,25.35,223.61,114.08,25.45,223.51,25.45s198.16,88.72,198.16,198.16Z" fill="#0c0c0c"/><path class="E" d="M228.12 222.67a3.89 3.89 0 0 1-7.78 0 3.89 3.89 0 0 1 7.78 0z" fill="#f0f2ff" opacity=".6"/><path class="F" d="M222.51,25.3C116.93,25.3,31.35,103.93,31.35,200.96c0,5.18.25,10.31.73,15.38,0,0,50.45,14.41,76.3,18.45,37.74,5.89,76.1,8.73,114.3,8.3,38.27-.43,76.62-4.16,114.3-10.89,25.9-4.62,76.3-20.17,76.3-20.17.25-3.66.38-7.35.38-11.06.01-97.03-85.57-175.67-191.15-175.67h0Z" fill="#494949" opacity=".44"/><use xlink:href="#E" fill="url(#C)"/><use xlink:href="#E" class="H" fill="url(#D)" opacity=".66"/><path d="M224.01 81.62c-24.89 0-46.92 9.46-60.46 24.01l11.22 17.3c9.85-13.16 28.21-22.02 49.24-22.02 19.47 0 36.65 7.59 46.92 19.17l11.63-16.42c-13.65-13.42-34.8-22.03-58.55-22.03h0zm-2 43.29a55.61 55.61 0 0 0-36.91 13.94l9.48 14.62c7.41-6.24 16.98-10 27.43-10 9.82 0 18.85 3.31 26.05 8.88l10.06-14.2c-9.73-8.25-22.33-13.23-36.11-13.23h0zm1.68-86.26c-32.71 0-62.09 12.66-82.33 32.77L152 87.81C166.95 70.5 193.25 59 223.2 59s55.85 11.32 70.87 28.41l11.59-16.35c-20.23-19.9-49.46-32.41-81.97-32.41h0zm-2.58 325.36c24.89 0 46.92-9.46 60.46-24.01l-11.22-17.3c-9.85 13.16-28.21 22.02-49.24 22.02-19.47 0-36.65-7.59-46.92-19.17l-11.63 16.42c13.65 13.42 34.8 22.03 58.55 22.03h0zm2-43.29a55.61 55.61 0 0 0 36.91-13.94l-9.48-14.62c-7.41 6.24-16.98 10-27.43 10-9.82 0-18.85-3.31-26.05-8.88L187 307.48c9.73 8.25 22.33 13.23 36.11 13.23h0zm-1.68 86.25c32.71 0 62.09-12.66 82.33-32.77l-10.64-16.39c-14.95 17.31-41.25 28.81-71.2 28.81s-55.85-11.32-70.87-28.41l-11.59 16.35c20.23 19.9 49.46 32.41 81.97 32.41h0z" fill="#fff"/><path d="M49.03 167.14v110.83H394.8v.2h-.92H48.83V168.05v-.92h.2zm.64 110.4v-70.45h1v-3.85h1v-6.52l.83-.05v-13.62h1v-15.18c1.08-.18 330.51-.26 336.79-.09v15.21l1.03.08v13.58l.83.07v6.48h1.03v3.85h.94c.04.12.08.21.08.3.01.13 0 .27 0 .41v69.79H49.67zM54.56 183h334.71v-14.19H54.56V183zm335.73 1.09H53.56c-.14 3.1-.09 11.77.07 12.56H390.3v-12.56zm.82 13.65H52.72v5.43H391.1v-5.43zm2.02 78.79v-68.4c-3.78-.16-25.2-.09-26.04.07v68.33h26.04zM50.7 208.11v68.4c3.81.16 25.2.09 26.04-.07v-68.33H50.7zm166.22 68.42v-15.16c0-.45.09-.9.17-1.35.22-1.3 1-2.2 1.94-2.96.6-.49 1.41-.68 2.17-.88.44-.12 1.91.01 2.35.21 2.04.91 3.31 2.34 3.34 4.66l.02 14.46v.99h4.73v-2.4h2.18v-60.46h-23.81v60.48h2.25v2.4h4.66zM51.7 207.04h340.44v-1.44c-.01-.46.05-.93-.04-1.34H51.7v2.79zm61.39 69.49v-15.16c0-.45.09-.9.17-1.35.22-1.3 1-2.2 1.94-2.96.6-.49 1.41-.68 2.17-.88.44-.12 1.91.01 2.35.21 2.04.91 3.31 2.35 3.34 4.66l.02 14.46v.99h4.52v-2.4h2.18v-60.46H107.2v60.48h2.25v2.4h3.64zm223.55-62.9h-22.58v60.5h2.2v1.24c0 .39.02.79.02 1.14h4.06v-1.04-14.15c0-1.46.48-2.72 1.55-3.74 1.48-1.4 3.25-1.8 5.11-1.12 2.14.78 3.31 2.51 3.32 4.76v14.56.74h4.08v-2.42h2.23v-60.47zm-189.08 62.89v-1.07l-.01-14.36c0-.57.11-1.13.3-1.61.63-1.54 1.65-2.78 3.63-3.11.93-.5 1.9-.23 2.75.09 2.1.79 3.3 2.5 3.31 4.76v14.26 1.02h4.3v-2.42h2.21v-60.45h-22.39c-.17 6.36-.1 59.47.09 60.51h2.14v2.38h3.66zm138.1.01v-15.47c0-1.03.31-2.01.9-2.78 1.43-1.85 3.39-2.65 5.73-1.85 2.11.72 3.32 2.32 3.35 4.62l.02 14.46v1.04c1.47-.03 2.88.03 4.32-.04v-2.42h2.18v-60.45h-22.38v60.48h2.25v2.4h3.64zm-89.72 0v-2.43h2.18v-60.45h-22.18v60.48h2.25v2.42h1.75c.56 0 1.13.02 1.68-.01v-15.47c0-1.03.31-2.01.9-2.78 1.43-1.85 3.38-2.65 5.73-1.85 2.11.72 3.32 2.32 3.35 4.62l.02 14.46v1.01h4.32zm55.66-.01v-1.06-14.36c0-.72.19-1.39.48-2.04.5-1.11 1.32-1.91 2.43-2.42 1.23-.57 2.53-.67 3.77-.18 2.1.82 3.3 2.51 3.31 4.77v14.56c0 .26.03.51.04.72h4.05v-2.42h2.21v-60.45H245.7c-.16 5.35-.09 59.47.08 60.51h2.14v2.38h3.67zm99.13 0h9.14v-62.89h-11.33v60.5h2.19v2.39zm-266.78-62.9v62.9c2.48.12 8.32.08 9.18-.07v-2.34h2.17v-60.48H83.94zm263.49 60.47V211.2c-2.34-.12-8.94-.08-9.73.05v62.84h9.73zm-44.2-62.92v62.89c2.34.12 8.93.08 9.73-.05v-62.84h-9.73zm-34.27 0v62.92h9.72v-62.92h-9.72zm-34.07 0v62.9c2.6.12 8.93.08 9.73-.06v-62.84h-9.73zm-35.71 62.9h9.74c.15-3.9.09-61.99-.06-62.88h-9.68v62.88zm-24.31-62.88h-9.74c-.16 4.11-.09 61.98.07 62.88h9.68v-62.88zm-44.01-.02v62.92h9.72v-62.92h-9.72zm-24.75 62.92V211.2c-2.43-.12-8.93-.08-9.73.06v62.84h9.73zm-23.2 2.44v-63.98H95.3v-1.4h-1.14c-.36 0-.72-.02-1.11-.03v-3.01H77.82v68.42h5.1zm283.1-68.4h-15.29v3.03h-2.21v1.44h12.43v63.91h5.07v-68.38zm-134.21-.01h-19.82v3.06h-2.03c.04.49-.04.95.05 1.37h23.78v-1.43h-1.99v-3zm82.23 4.42h22.6v-1.4h-2.03v-3.01h-18.35v3.03h-2.21v1.38zm-186.51-1.38v-3.01h-18.35v2.99c-.69.06-1.36-.03-1.98.06v1.35h22.58v-1.38h-2.25zm152.24 1.39h22.37v-1.43h-1.99v-2.99H282v1.54c-.01.49.05.99-.04 1.52h-2.18v1.36zm-117.93-4.42h-18.15v1.54c0 .5.05 1-.04 1.52h-1.98v1.36h22.37v-1.43h-2.2v-2.99zm83.86 4.42h22.23c-.04-.49.04-.95-.07-1.43h-1.99v-2.99h-17.94v1.54c-.01.49.05.99-.04 1.52h-2.18v1.36zm-69.76-.01h22.22c-.05-.49.05-.95-.07-1.43h-2.19v-2.98h-17.94v1.55c-.01.49.05.99-.05 1.51h-1.97v1.35zm56.91-2.44h14.06v-1.03c0-.33-.02-.65-.03-.94h-14.02v1.98zm-21.87-1.97h-14.06v1.04c0 .32.02.65.03.93h14.02v-1.97zm-34.06 0h-14.06v1.03c0 .33.02.65.03.94h14.02v-1.97zm-48.31 1.97h14.06v-1.04c0-.33-.02-.65-.03-.94h-14.02v1.97zm-20.46.02v-1.99c-3.25-.13-13.15-.08-14 .06v1.93h14zm193.03-.02h14.06v-1.04c0-.33-.02-.65-.03-.94h-14.02v1.97zm-20.23-1.97h-14.06v1.04c0 .32.02.65.03.93h14.02v-1.97zm68.75 0h-14.06v1.04c0 .32.02.65.03.93h14.02v-1.97zM94.13 276.52h14.24v-1.36H94.13v1.36zm48.72-1.36h-14.21v1.37h14.21v-1.37zm34.27 0h-14.24v1.36h14.24v-1.36zm19.83 1.36h14.27c-.05-.49.05-.95-.06-1.36h-14.22v1.36zm35.69 0h14.27c-.04-.49.05-.95-.05-1.36h-14.22v1.36zm48.31-1.36h-14.24v1.36h14.24v-1.36zm34.27 0h-14.21v1.36h14.21v-1.36zm34.46 1.38v-1.38c-3.36-.13-13.35-.08-14.21.06v1.31h14.21zM245.5 189.68c-.04 2.2-.64 3.38-1.75 4.38-.95.86-2.04 1.18-3.27 1.2-2.6.04-4.85-2.46-4.81-4.97.03-2.47 2.37-4.87 4.96-4.83 2.38.03 4.95 2.19 4.87 4.22zm112.58.75c.04 2.55-2.28 4.91-4.93 4.83-1.36-.04-2.5-.49-3.45-1.52-.93-1-1.42-2.12-1.42-3.48 0-2.43 2.35-4.85 4.99-4.8 2.35.05 4.93 2.2 4.81 4.97zm-23.07 4.81c-3.29.12-5.54-2.46-5.51-4.94.04-2.47 2.37-4.87 4.97-4.83 2.38.03 4.93 2.19 4.85 4.93-.04 1.45-.6 2.59-1.66 3.59-.94.89-2.03 1.19-2.65 1.25zm-14.47-4.79c.03 2.52-2.28 4.9-4.95 4.81-1.35-.05-2.5-.5-3.44-1.53-.92-1.01-1.43-2.12-1.4-3.49.03-1.38.61-2.47 1.6-3.41.96-.92 2.08-1.37 3.41-1.36 1.46.02 2.59.68 3.56 1.72.8.86 1.23 1.9 1.23 3.25zm-18.77-.58c.04 3.11-2.28 5.43-4.95 5.41-2.63-.02-4.96-2.48-4.84-5.04.06-1.37.62-2.47 1.6-3.4.96-.91 2.08-1.37 3.41-1.35 1.46.02 2.57.7 3.57 1.72.9.93 1.17 2.04 1.21 2.67zm-23.28-4.39c2.06-.03 4.57 2.19 4.54 4.94-.03 2.54-2.31 4.96-5.04 4.84-1.32-.06-2.42-.52-3.35-1.51-.93-1-1.45-2.11-1.43-3.48.02-1.38.6-2.47 1.57-3.42.96-.93 2.07-1.4 3.7-1.38zm-14.25 4.93c.05 2.56-2.28 4.92-4.91 4.85-1.36-.04-2.5-.48-3.45-1.51-.93-1-1.43-2.11-1.43-3.48-.01-2.45 2.36-4.86 4.97-4.81 2.37.04 4.93 2.2 4.83 4.95zm-37.52.03c.02 2.53-2.29 4.91-4.96 4.82-1.35-.05-2.5-.5-3.44-1.53-.93-1.01-1.43-2.12-1.41-3.49.02-1.34.58-2.41 1.52-3.34.97-.96 2.11-1.45 3.48-1.43 1.46.02 2.57.69 3.57 1.71.9.93 1.19 2.03 1.24 3.25zm-23.75 4.84c-2.63.04-4.86-2.47-4.84-4.96.02-2.45 2.35-4.96 5.04-4.85 1.46.06 2.57.71 3.56 1.74.89.93 1.22 2.03 1.2 3.26-.02 1.44-.63 2.58-1.7 3.57-.95.87-2.04 1.17-3.26 1.23zm-18.77-.02c-2.63.05-4.85-2.46-4.84-4.94.02-2.46 2.36-4.96 5.04-4.85 1.46.06 2.57.71 3.56 1.74.89.93 1.22 2.03 1.2 3.26-.01 1.44-.61 2.6-1.71 3.56a4.67 4.67 0 0 1-3.26 1.22zm-42.35-4.95c-.05-2.48 2.35-4.87 4.94-4.84 2.37.02 4.99 2.2 4.86 5.02-.06 1.45-.66 2.59-1.73 3.56-.95.87-2.04 1.19-3.27 1.21-2.61.05-4.91-2.46-4.8-4.96zm-13.89 4.96c-1.35-.04-2.5-.49-3.45-1.51-.93-1-1.43-2.11-1.43-3.48-.01-2.45 2.36-4.86 4.97-4.81 2.37.04 4.88 2.19 4.84 4.95-.03 2.56-2.3 4.92-4.93 4.85zm-18.89-9.8c1.66-.02 2.81.68 3.82 1.73.89.93 1.2 2.03 1.21 3.26.03 2.5-2.28 4.83-4.97 4.81-2.63-.03-4.86-2.48-4.84-4.96s2.36-4.94 4.78-4.85zm-13.73 4.98c.03 2.52-2.28 4.9-4.95 4.81-1.35-.05-2.5-.5-3.44-1.53-.92-1.01-1.43-2.12-1.4-3.49.02-1.34.57-2.41 1.52-3.34.98-.96 2.11-1.45 3.48-1.43 1.46.02 2.59.68 3.56 1.72.8.86 1.23 1.9 1.23 3.25zm65.28-.15c-.05-2.48 2.35-4.87 4.94-4.84 2.37.03 4.98 2.2 4.86 5.03-.06 1.45-.67 2.58-1.73 3.56-.94.87-2.04 1.19-3.27 1.21-2.61.04-4.91-2.46-4.8-4.96zm56.74 27.8h8.91v31.25c-.78.15-5.79.2-8.91.07V218.1zm-103.63 0h8.91v31.26c-.79.14-6.38.18-8.91.06V218.1zm207.26 0h8.91v31.26c-.79.14-6.21.19-8.91.06V218.1zm-172.78 0h8.91v31.25c-.79.15-5.89.2-8.91.07V218.1zm147.01 31.34h-8.91v-31.26c.79-.14 6.44-.18 8.91-.06v31.32zm-104.04 0h-8.91v-31.26c.81-.15 6.11-.19 8.91-.06v31.32zm61.06-31.34h8.91v31.25c-.79.15-5.91.2-8.91.07V218.1z" fill="#fefefe"/></svg>