<?xml version="1.0" encoding="UTF-8"?><svg id="a" xmlns="http://www.w3.org/2000/svg" xmlns:xlink="http://www.w3.org/1999/xlink" viewBox="0 0 445.01 445"><defs><style>.g{fill:url(#e);opacity:.66;}.g,.h,.i,.j,.k,.l,.m{stroke-width:0px;}.g,.k,.l{isolation:isolate;}.h{fill:#000;}.n{fill:url(#c);stroke:#fff;stroke-width:4.47px;}.n,.o{stroke-linecap:round;stroke-linejoin:round;}.i{fill:url(#d);}.o{fill:url(#b);stroke:#000;stroke-width:2.24px;}.j{fill:#fff;}.k{fill:#c1c1c1;opacity:.44;}.l{fill:#f0f2ff;opacity:.6;}.m{fill:#fefefe;}</style><linearGradient id="b" x1="198.46" y1="-259.6" x2="198.46" y2="166.4" gradientTransform="translate(.23 170.16) scale(1.12 -1.12)" gradientUnits="userSpaceOnUse"><stop offset="0" stop-color="#333"/><stop offset="1" stop-color="#ccc"/></linearGradient><linearGradient id="c" x1="205.25" y1="324.94" x2="205.25" y2="750.94" gradientTransform="translate(4.96 -347.43) scale(1.06)" gradientUnits="userSpaceOnUse"><stop offset="0" stop-color="#333"/><stop offset="1" stop-color="#ccc"/></linearGradient><linearGradient id="d" x1="-261.59" y1="311.74" x2="-160.81" y2="194.66" gradientTransform="translate(-44.39 135.9) rotate(-132.15)" gradientUnits="userSpaceOnUse"><stop offset="0" stop-color="#fff"/><stop offset="1" stop-color="#fff" stop-opacity="0"/></linearGradient><linearGradient id="e" x1="-132.42" y1="285.49" x2="-165.37" y2="117.65" gradientTransform="translate(-44.39 135.9) rotate(-132.15)" gradientUnits="userSpaceOnUse"><stop offset="0" stop-color="#fff"/><stop offset="1" stop-color="#fff" stop-opacity="0"/></linearGradient></defs><path class="o" d="M443.89,222.5C443.89,100.24,344.77,1.12,222.5,1.12S1.12,100.24,1.12,222.5s99.12,221.38,221.38,221.38,221.38-99.12,221.38-221.38h.01Z"/><path class="n" d="M431.81,222.46c0,115.58-93.7,209.29-209.29,209.29S13.24,338.04,13.24,222.46,106.94,13.17,222.52,13.17s209.29,93.7,209.29,209.29Z"/><path class="h" d="M424.66,222.45c0,111.65-90.51,202.16-202.16,202.16S20.34,334.09,20.34,222.45,110.86,20.29,222.5,20.29s202.16,90.51,202.16,202.16h0Z"/><path class="j" d="M421.67,223.61c0,109.44-88.72,198.16-198.16,198.16S25.35,333.05,25.35,223.61,114.08,25.45,223.51,25.45s198.16,88.72,198.16,198.16h0Z"/><path class="l" d="M228.12,222.67c0,2.15-1.74,3.89-3.89,3.89s-3.89-1.74-3.89-3.89,1.74-3.89,3.89-3.89,3.89,1.74,3.89,3.89Z"/><path class="k" d="M222.51,25.3C116.93,25.3,31.35,103.93,31.35,200.96c0,5.18.25,10.31.73,15.38,0,0,50.45,14.41,76.3,18.45,37.74,5.89,76.1,8.73,114.3,8.3,38.27-.43,76.62-4.16,114.3-10.89,25.9-4.62,76.3-20.17,76.3-20.17.25-3.66.38-7.35.38-11.06.01-97.03-85.57-175.67-191.15-175.67h0Z"/><path class="i" d="M22.54,224.08c.37-110.06,89.94-199.41,200.04-199.56,55.66-.08,108.71,23.1,146.32,63.94l-146.99,135.34s-199.37.28-199.37.28Z"/><path class="g" d="M22.54,224.08c.37-110.06,89.94-199.41,200.04-199.56,55.66-.08,108.71,23.1,146.32,63.94l-146.99,135.34s-199.37.28-199.37.28Z"/><g id="f"><path class="m" d="M389.92,167.7v15.15h.99v13.6c.3.02.52.03.82.04v6.46h.99v3.82l1.02.06v70.1H51.28v-70.09c.28-.02.59-.04.95-.06v-3.8h1.02v-6.5h.82v-13.56h.99v-15.22h334.86ZM56.13,182.84h332.76v-14.13H56.13v14.13ZM55.12,196.43h334.77c.14-2.91.08-11.71-.06-12.51H55.12s0,12.51,0,12.51ZM390.72,197.51H54.29v5.29s.02.06.04.09.05.05.04.04h336.36v-5.41h0ZM52.29,222.47v53.48h25.89v-68.09c-3.29-.15-25.06-.09-25.89.06v11.44M392.73,275.94v-68.1h-25.89v68.1h25.89,0ZM217.54,275.94v-15.11c0-.89.21-1.7.61-2.49.87-1.72,2.34-2.47,4.18-2.66.49-.05.96.07,1.44.19,1.25.31,2.21,1,2.9,2.09.56.89.82,1.85.82,2.91-.02,4.73,0,9.46,0,14.19v.88h4.68v-2.43h2.17v-60.18h-23.65v60.22h2.21v2.4h4.65,0ZM391.73,204H53.27c0,.5,0,.97,0,1.44,0,.46-.06.92.04,1.33h338.42v-2.77ZM314.11,213.32v60.19c.75.06,1.48-.04,2.24.06v2.37h4.02v-15.2c0-.85.21-1.63.6-2.39.88-1.71,2.33-2.49,4.18-2.66.49-.05.96.06,1.44.19,1.28.34,2.26,1.03,2.94,2.17.53.88.78,1.8.78,2.82-.01,4.7,0,9.39,0,14.09v.99h4.07v-2.43h2.18v-60.19h-22.45ZM108.46,213.31v60.24h2.24v2.38h3.62v-14.69c0-.62.01-1.23.18-1.85.18-.66.44-1.28.85-1.77.75-.91,1.63-1.68,2.91-1.74,1.34-.59,2.93,0,3.9.69,1.31.94,2.09,2.3,2.1,3.97.01,4.8,0,9.6,0,14.39v1.03c1.53-.04,3,.04,4.5-.05v-2.4h2.16v-60.21h-22.46ZM302.28,273.52v-60.19c-3.71-.15-21.39-.09-22.24.07v60.16h2.24v2.38h3.62v-14.69c0-.62.01-1.23.18-1.85.18-.66.44-1.28.85-1.77.75-.91,1.63-1.68,2.91-1.74,1.34-.59,2.93,0,3.9.69,1.31.94,2.09,2.3,2.1,3.97.01,4.8,0,9.6,0,14.39v1.03c1.46-.03,2.86.03,4.3-.04v-2.41h2.16-.02ZM164.98,273.52v-60.19c-3.77-.15-21.39-.09-22.24.07v60.16h2.24v2.38h3.62v-14.69c0-.62,0-1.23.18-1.85.17-.66.44-1.28.85-1.77.75-.91,1.63-1.68,2.91-1.74,1.34-.59,2.93,0,3.9.69,1.31.94,2.09,2.3,2.1,3.97,0,4.8,0,9.6,0,14.39v1.03c1.46-.04,2.86.04,4.3-.05v-2.4h2.16-.02ZM179,275.96h3.15c.2,0,.32-.03.31-.26,0-.2,0-.41,0-.61v-14.29c0-1.45.47-2.71,1.54-3.72,1.47-1.39,3.23-1.79,5.08-1.12,2.13.77,3.29,2.5,3.3,4.73.02,4.83,0,9.66,0,14.49v.74h4.26v-1.24c0-.39-.05-.79.06-1.2h2.14c.16-5.63.09-59.2-.07-60.16h-21.96v60.22h2.18v2.41h.01ZM268.21,273.52v-60.19c-3.26-.14-21.2-.08-22.04.06v60.16h2.23v2.41h3.47s.06-.02.09-.04.04-.05.06-.07v-14.6c0-.62,0-1.23.18-1.85.18-.66.43-1.28.85-1.77.75-.91,1.64-1.68,2.91-1.75,1.34-.59,2.93,0,3.9.69,1.31.94,2.1,2.29,2.1,3.97.01,4.8,0,9.6,0,14.39v1.02h3.9l.09-.03s.05-.05.11-.11v-2.3h2.16,0ZM359.68,275.94v-62.6h-11.3v60.21h2.23v2.39h9.07,0ZM85.33,275.93h9.12v-2.41h2.21v-60.18h-11.32v62.59h0ZM347.3,273.51v-62.61c-2.73-.13-8.88-.08-9.67.06v62.55h9.67ZM303.36,210.88v62.63h9.66v-62.63h-9.66ZM278.96,273.51v-62.61c-2.94-.13-8.88-.08-9.67.07v62.54h9.67ZM235.42,210.88v62.61c2.52.12,8.87.08,9.67-.06v-62.55h-9.67ZM209.6,273.51v-62.61c-2.56-.12-8.88-.08-9.67.06v62.55h9.67ZM166.06,210.88v62.61c3.08.13,8.89.08,9.67-.07v-62.54h-9.67ZM131.99,210.88v62.61c2.41.12,8.88.08,9.67-.06v-62.55h-9.67ZM97.72,210.88v62.61c2.46.12,8.88.08,9.67-.06v-62.55h-9.67ZM84.31,275.94v-63.66h12.21s.06-.02.08-.04c.02-.02.04-.05.02-.03v-1.37h-2.21v-3h-15.15v68.09h5.05ZM348.37,212.32h12.38v63.61h4.99v-68.08h-15.19v3.04h-2.19v1.43h.01ZM210.67,212.25h23.65v-1.43h-1.98v-2.97h-19.67v1.54c0,.49.05.99-.04,1.51h-1.96v1.35ZM336.55,212.27v-1.41h-2v-3.01c-4.84-.14-17.31-.08-18.28.09v2.94h-2.16v1.4h22.44ZM108.46,212.25h22.5c-.04-.49.04-.94-.07-1.43h-2.18v-2.97h-18.24v1.54c-.01.49.05.99-.04,1.51h-1.96v1.35h-.01ZM280.03,212.25h22.24v-1.43h-1.98v-2.97h-18.04v1.54c-.01.49.05.99-.04,1.51h-2.17v1.35h0ZM142.73,212.26h22.24v-1.42h-2.18v-1.54c0-.49.05-.99-.03-1.45h-18.04v3.04h-1.98v1.37h-.01ZM266.22,207.85h-17.88v3.04h-2.23c.06.49-.04.95.06,1.36h22.02v-1.42h-1.98v-2.98h.01ZM176.8,212.25h22.04v-1.42h-2.18v-1.54c0-.49.05-.99-.03-1.44h-17.84v3.04h-1.98v1.35h-.01ZM233.4,207.84v1.98c3.33.13,13.08.08,13.92-.06v-1.92h-13.92ZM211.64,207.85h-13.97v1.03c0,.32.02.65.03.94h13.94v-1.97ZM177.76,209.83v-1.96h-13.92v1.96h13.92ZM143.7,207.86h-13.96v1.96h13.96v-1.96ZM109.43,207.86h-13.97v1.03c0,.32.02.65.03.93h13.94v-1.96h0ZM301.32,209.82h13.97v-1.03c0-.32-.02-.65-.03-.93h-13.94v1.96h0ZM281.2,207.86h-13.97v1.03c0,.32.02.64.03.93h13.94v-1.96h0ZM335.61,207.84v1.98c3.27.13,13.08.08,13.92-.06v-1.92h-13.92ZM95.47,275.93h14.12v-1.36h-14.12v1.36ZM143.91,274.58h-14.16v1.35h14.16v-1.35ZM163.82,275.93h14.16v-1.35h-14.16v1.35ZM211.83,275.95v-1.37c-3.39-.13-13.28-.08-14.13.06v1.31h14.13ZM247.32,275.95v-1.37c-3.31-.13-13.28-.08-14.13.06v1.31h14.13ZM281.19,275.95v-1.37c-3.31-.13-13.28-.08-14.13.06v1.31h14.13ZM301.11,275.93h14.16v-1.35h-14.16v1.35ZM349.55,274.54h-14.21c.08.52-.04.98.08,1.42h14.13v-1.42Z"/><path class="m" d="M245.94,190.22c-.04,1.47-.61,2.66-1.74,3.63-.85.74-1.9,1.22-3.25,1.18-1.31-.03-2.41-.49-3.33-1.49-.93-1-1.42-2.1-1.43-3.46-.02-2.44,2.34-4.84,4.94-4.8,2.36.04,4.91,2.18,4.81,4.93h0ZM352.99,195.05c-1.34-.04-2.48-.48-3.43-1.5-.92-1-1.42-2.1-1.43-3.46-.01-2.44,2.34-4.84,4.94-4.79,2.35.04,4.85,2.18,4.82,4.93-.03,2.55-2.29,4.9-4.91,4.83h0ZM339.23,190.2c-.05,1.46-.61,2.65-1.72,3.65-.95.85-2.03,1.18-3.25,1.2-2.59.04-4.82-2.45-4.79-4.94.03-2.47,2.36-4.85,4.93-4.82,2.37.03,4.92,2.19,4.83,4.91h0ZM320.57,190.21c-.02,1.47-.61,2.66-1.73,3.64-.86.75-1.9,1.22-3.25,1.19-1.31-.03-2.41-.49-3.33-1.48-.93-1-1.42-2.1-1.43-3.46-.02-2.45,2.34-4.84,4.93-4.8,2.36.04,4.91,2.18,4.82,4.92h-.01ZM301.92,190.22c-.04,1.47-.61,2.66-1.74,3.63-.85.74-1.9,1.22-3.25,1.18-1.31-.03-2.41-.49-3.33-1.49-.92-1-1.42-2.1-1.43-3.46-.02-2.44,2.34-4.84,4.94-4.8,2.36.04,4.91,2.18,4.81,4.93h0ZM283.26,190.22c-.04,1.47-.61,2.66-1.74,3.63-.85.74-1.9,1.22-3.25,1.18-1.31-.03-2.41-.49-3.33-1.49-.93-1-1.42-2.1-1.43-3.46-.02-2.44,2.34-4.84,4.94-4.8,2.36.04,4.91,2.18,4.81,4.93h0ZM264.6,190.2c-.04,1.47-.61,2.65-1.72,3.64-.95.85-2.03,1.18-3.25,1.2-2.59.04-4.82-2.45-4.79-4.94.03-2.47,2.36-4.85,4.93-4.81,2.37.03,4.92,2.18,4.83,4.91ZM227.28,190.26c.03,2.51-2.27,4.88-4.92,4.79-1.35-.05-2.48-.5-3.42-1.52-.92-1-1.42-2.11-1.4-3.47.02-1.33.57-2.4,1.51-3.32.97-.95,2.1-1.44,3.46-1.42,1.45.02,2.58.67,3.54,1.71.8.86,1.22,1.89,1.22,3.24h0ZM203.68,195.06c-2.62.04-4.83-2.46-4.81-4.93.02-2.44,2.34-4.94,5.02-4.82,1.45.06,2.56.71,3.54,1.73.88.92,1.21,2.02,1.2,3.25-.02,1.44-.63,2.57-1.7,3.55-.94.87-2.03,1.17-3.24,1.22h0ZM166.48,185.31c2.37-.05,4.9,2.17,4.83,4.89-.04,1.49-.64,2.64-1.72,3.65-.94.87-2.03,1.18-3.25,1.2-2.59.04-4.82-2.45-4.79-4.94.03-2.47,2.36-4.91,4.93-4.8h0ZM142.91,190.1c-.05-2.46,2.34-4.84,4.92-4.81,2.35.03,4.95,2.19,4.82,5.01-.07,1.44-.66,2.57-1.72,3.54-.94.86-2.03,1.18-3.25,1.2-2.59.04-4.88-2.45-4.77-4.94h0ZM133.99,190.22c.05,2.55-2.27,4.9-4.88,4.83-1.35-.04-2.49-.48-3.43-1.5-.92-1-1.42-2.1-1.43-3.46-.01-2.44,2.34-4.84,4.94-4.79,2.35.04,4.91,2.18,4.8,4.93h0ZM115.34,190.19c-.04,1.47-.61,2.65-1.71,3.65-.95.85-2.03,1.18-3.25,1.2-2.6.05-4.82-2.45-4.8-4.93.03-2.46,2.35-4.85,4.92-4.82,2.38.02,4.92,2.19,4.84,4.9h0ZM96.67,190.25c.03,2.52-2.27,4.88-4.92,4.79-1.35-.05-2.48-.5-3.42-1.52-.92-1-1.42-2.11-1.4-3.47.02-1.34.57-2.4,1.51-3.32.97-.95,2.1-1.45,3.46-1.43,1.45.02,2.58.67,3.54,1.71.81.87,1.22,1.88,1.22,3.24h0ZM185.02,195.06c-2.62.04-4.83-2.46-4.81-4.93.02-2.44,2.34-4.94,5.02-4.82,1.45.06,2.56.71,3.54,1.73.88.92,1.21,2.02,1.2,3.25-.02,1.44-.63,2.57-1.69,3.55-.94.87-2.03,1.17-3.24,1.22h-.02ZM226.84,248.97h-8.86v-31.11c.79-.14,6.21-.18,8.86-.06v31.17ZM321.01,217.78h8.85v31.11c-.78.15-5.72.2-8.85.07v-31.18ZM123.81,248.97h-8.86v-31.11c.79-.15,6.05-.19,8.86-.06v31.18h0ZM295.39,248.97h-8.86v-31.11c.79-.14,6.28-.18,8.86-.06v31.17ZM158.1,217.79v31.16h-8.81c-.15-.87-.21-27.6-.06-31.16h8.87ZM183.1,217.78h8.86v31.11c-.79.14-6.26.18-8.86.06v-31.17ZM261.51,248.97h-8.85v-31.19h8.85v31.19Z"/><path class="h" d="M51.31,278.13v-69.82c.3-.06.61-.12.98-.19v-3.7c.35-.04.63-.07.99-.1v-6.36c.91.08.85-.49.85-1.08,0-3.78,0-7.55,0-11.33v-1.16c.35-.03.64-.06.99-.09v-15.06h334.39v14.98c.37.07.68.13,1.06.21v9.41c0,1.05-.04,2.09.02,3.13.03.39.31.77.48,1.16.1-.03.21-.05.31-.08v6.22c.34.06.65.11,1.02.18v3.71c.35.03.64.06.96.09v69.89H51.31ZM56.19,184.26h332.29v-14.03H56.19s0,14.03,0,14.03ZM389.49,185.41H55.21v12.42h334.28v-12.42ZM390.31,198.97H54.37v5.34h335.94v-5.34ZM78.15,277.15v-67.85h-25.81v67.85h25.81ZM366.52,209.26v67.85h25.8v-67.85h-25.8ZM234.12,274.79v-60.03h-23.58v60.02h2.22v2.37h4.62v-14.98c0-1.34.37-2.53,1.27-3.53,1.36-1.54,3.53-2.08,5.45-1.34,1.93.73,3.2,2.49,3.21,4.6.02,4.72,0,9.44,0,14.16v1.08h4.68v-2.33h2.14v-.02ZM391.32,205.45H53.36v2.71h337.96v-2.71ZM336.2,274.78v-60.02h-22.36v60.02h2.22v2.35h4.01v-14.99c0-1.34.38-2.52,1.27-3.52,1.36-1.54,3.53-2.07,5.45-1.33,1.93.74,3.19,2.49,3.2,4.6.02,4.72,0,9.44,0,14.16v1.07h4.08v-2.34h2.13,0ZM130.81,274.78v-60.02h-22.36v60.02h2.22v2.35h3.6v-14.79c0-.44,0-.88.08-1.31.51-2.58,2.8-4.3,5.36-4.05,2.5.24,4.45,2.33,4.47,4.92.03,4.72,0,9.44.01,14.16v1.06h4.49v-2.34h2.13ZM279.83,214.73v60.09h2.2v2.3h3.6v-15.02c0-1.3.38-2.46,1.24-3.44,1.35-1.55,3.51-2.1,5.44-1.39,1.93.71,3.23,2.48,3.24,4.57.03,4.75.01,9.51.01,14.26v1.04h4.28v-2.42h2.15v-59.99h-22.16ZM142.7,214.73v60.09h2.2v2.3h3.61v-15.02c0-1.3.38-2.46,1.23-3.44,1.35-1.55,3.51-2.1,5.44-1.39,1.93.71,3.23,2.48,3.24,4.57.03,4.75,0,9.51,0,14.26v1.04h4.28v-2.42h2.15v-59.99h-22.16,0ZM267.94,274.79v-60.03h-21.96v60.02h2.22v2.36h3.61v-14.99c0-1.34.37-2.52,1.27-3.53,1.36-1.54,3.53-2.07,5.45-1.33,1.93.73,3.19,2.49,3.2,4.6.02,4.72,0,9.44,0,14.16v1.07h4.08v-2.33h2.13,0ZM198.67,274.79v-60.03h-21.96v60.02h2.22v2.36h3.4v-14.99c0-1.34.37-2.52,1.27-3.53,1.36-1.54,3.53-2.07,5.45-1.33,1.93.73,3.19,2.49,3.2,4.6.02,4.72,0,9.44,0,14.16v1.07h4.28v-2.33h2.14ZM348.09,214.73v60.06h2.17v2.33h9.05v-62.39h-11.22ZM96.58,274.79v-60.06h-11.21v62.39h9.08v-2.33h2.13ZM346.93,274.72v-62.42h-9.59v62.42h9.59ZM303.12,212.3v62.38h9.6v-62.38h-9.6ZM269.09,212.3v62.38h9.61v-62.38h-9.61ZM235.27,212.3v62.38h9.6v-62.38h-9.6ZM209.4,274.73v-62.42h-9.58v62.42h9.58ZM175.58,274.72v-62.38h-9.6v62.38h9.6ZM141.55,274.72v-62.38h-9.6v62.38h9.6ZM97.74,212.3v62.42h9.59v-62.42h-9.59ZM79.3,209.26v67.85h5.06v-63.48h12.23v-1.43h-2.2v-2.94h-15.09ZM360.41,213.66v63.45h4.98v-67.83h-15.17v3.03h-2.14v1.35h12.34,0ZM232.17,209.29h-19.71v3h-1.9v1.31h23.59v-1.35h-1.97v-2.96h0ZM313.83,213.6h22.36v-1.38h-1.97v-2.93h-18.26v3h-2.14v1.31h.01ZM110.45,212.29h-2v1.33h22.38v-1.4h-2.22v-2.95h-18.15v3.02h-.01ZM300.03,209.29h-18.09v3h-2.12v1.32h22.14v-1.38h-1.93v-2.94ZM164.86,212.24h-2.22v-2.94h-18.02v2.98h-1.92v1.32h22.16v-1.36ZM267.97,213.63v-1.34c-.66-.03-1.28-.06-2.01-.09v-2.91h-17.82v2.97h-2.13v1.37h21.96ZM196.53,209.29h-17.89v3h-1.91v1.31h21.93v-1.38h-2.13v-2.94h0ZM233.22,211.17h13.89v-1.9h-13.89v1.9ZM197.57,211.17h13.85v-1.9h-13.85v1.9ZM177.63,209.29h-13.85v1.9h13.85v-1.9ZM143.6,209.29h-13.89v1.9h13.89v-1.9ZM95.48,211.17h13.89v-1.9h-13.89v1.9h0ZM301.07,211.17h13.89v-1.9h-13.89v1.9ZM280.95,209.28h-13.88v1.88h13.88v-1.88ZM335.31,209.26v1.92h13.85v-1.92h-13.85ZM95.48,275.82v1.32h14.08v-1.32h-14.08ZM129.71,277.12h14.09v-1.29h-14.09v1.29ZM177.86,275.84h-14.09v1.28h14.09v-1.28ZM211.69,275.84h-14.09v1.28h14.09v-1.28h0ZM247.13,275.84h-14.09v1.28h14.09v-1.28ZM280.93,275.84h-14.09v1.3h14.09v-1.3ZM314.99,275.85h-14.09v1.26h14.09v-1.26h0ZM349.22,275.85h-14.09v1.26h14.09v-1.26Z"/><path class="h" d="M245.82,191.57c.03,2.75-2.14,4.96-4.9,4.99-2.71.05-4.94-2.11-4.99-4.82,0-.02,0-.05,0-.07-.03-2.75,2.14-4.96,4.9-4.99,2.71-.04,4.95,2.12,4.99,4.84,0,.02,0,.04,0,.05ZM357.62,191.65c0,2.71-2.2,4.9-4.91,4.9-.02,0-.05,0-.07,0-2.71,0-4.91-2.21-4.91-4.92,0-.02,0-.04,0-.06,0-2.71,2.21-4.91,4.93-4.9.02,0,.04,0,.05,0,2.76.02,4.93,2.23,4.91,4.98ZM334.01,196.56c-2.71,0-4.91-2.19-4.91-4.9,0-.02,0-.05,0-.07,0-2.71,2.21-4.91,4.92-4.91.02,0,.04,0,.06,0,2.76.02,4.93,2.22,4.91,4.97,0,2.71-2.21,4.91-4.92,4.91-.02,0-.04,0-.06,0ZM320.35,191.67c-.01,2.71-2.22,4.9-4.94,4.89-.02,0-.04,0-.05,0-2.76-.03-4.93-2.24-4.9-4.99.01-2.71,2.22-4.9,4.94-4.89.02,0,.04,0,.05,0,2.76.03,4.93,2.24,4.9,4.99ZM291.83,191.54c.03-2.71,2.24-4.89,4.95-4.86.02,0,.05,0,.07,0,2.76.04,4.92,2.27,4.87,5.01-.05,2.75-2.27,4.91-5.02,4.86-2.71-.02-4.89-2.23-4.87-4.94,0-.02,0-.05,0-.07ZM278.09,186.68c2.72-.04,4.96,2.12,5,4.84,0,.02,0,.03,0,.05.03,2.75-2.14,4.96-4.9,4.99-2.72.04-4.96-2.12-5-4.84,0-.02,0-.03,0-.05-.03-2.75,2.14-4.96,4.9-4.99ZM259.52,186.68c2.71-.02,4.91,2.16,4.93,4.87,0,.03,0,.05,0,.08,0,2.75-2.2,4.94-4.96,4.93-2.76,0-4.94-2.2-4.94-4.95s2.2-4.94,4.96-4.93h.01ZM227.18,191.59c.03,2.71-2.14,4.94-4.86,4.97-.02,0-.04,0-.05,0-2.72.03-4.95-2.14-4.98-4.86,0-.02,0-.03,0-.05-.03-2.71,2.14-4.94,4.86-4.97.02,0,.04,0,.05,0,2.71-.04,4.94,2.14,4.98,4.85,0,.02,0,.04,0,.06ZM203.61,196.56c-2.75,0-4.95-2.18-4.95-4.93s2.18-4.94,4.94-4.94,4.95,2.18,4.95,4.93c.02,2.72-2.17,4.93-4.89,4.95-.02,0-.03,0-.05,0h0ZM171.28,191.57c.03,2.75-2.14,4.96-4.9,4.99-2.72.04-4.96-2.12-5-4.84,0-.02,0-.03,0-.05-.03-2.75,2.14-4.96,4.9-4.99,2.72-.04,4.96,2.12,5,4.84,0,.02,0,.03,0,.05ZM152.64,191.71c-.04,2.72-2.27,4.89-4.99,4.85-.02,0-.03,0-.05,0-2.71-.03-4.88-2.25-4.85-4.96,0-.02,0-.05,0-.07.05-2.75,2.29-4.9,5.04-4.85,2.76.05,4.91,2.29,4.85,5.03ZM129.06,186.68c2.76,0,4.95,2.19,4.95,4.94s-2.19,4.94-4.94,4.94c-2.72.02-4.93-2.17-4.95-4.89,0-.02,0-.03,0-.05,0-2.75,2.19-4.94,4.94-4.94ZM105.48,191.54c.03-2.71,2.24-4.89,4.95-4.86.02,0,.05,0,.07,0,2.76.04,4.92,2.27,4.87,5.01-.05,2.75-2.27,4.91-5.02,4.86-2.71-.02-4.89-2.23-4.87-4.94,0-.02,0-.05,0-.07ZM96.74,191.64c0,2.71-2.2,4.92-4.91,4.92-.02,0-.04,0-.06,0-2.71.01-4.91-2.17-4.92-4.88,0-.03,0-.05,0-.08,0-2.71,2.2-4.92,4.91-4.92.02,0,.04,0,.06,0,2.71-.01,4.91,2.17,4.92,4.88,0,.03,0,.05,0,.08ZM189.91,191.6c0,2.75-2.18,4.94-4.93,4.95-2.75,0-4.95-2.17-4.96-4.93,0-2.75,2.18-4.94,4.93-4.95,2.75,0,4.95,2.17,4.96,4.93ZM217.85,219.18h8.79v31.03h-8.79v-31.03ZM320.74,219.18h8.79v31.03h-8.79v-31.03ZM123.73,250.24h-8.79v-31.03h8.79v31.03ZM295.08,250.24h-8.79v-31.03h8.79v31.03ZM157.98,219.2v31.03h-8.79v-31.03h8.79ZM252.46,250.23v-31.02h8.8v31.02h-8.8ZM183.01,219.18h8.79v31.03h-8.79v-31.03Z"/></g></svg>